# xmcd
#
# Track frame offsets:
#	150
#	23367
#	45679
#	59555
#	74589
#	99370
#	116464
#	131942
#	145557
#	165561
#	194813
#	205898
#	215890
#	231884
#	249312
#	259906
#	271183
#
# Disc length: 3798 seconds
#
# Revision: 1
# Processed by: cddbd v1.4PL0 Copyright (c) Steve Scherf et al.
# Submitted via: CDmax 2.0
#
DISCID=030ed411
DTITLE=Albert Frost - Catfish
DYEAR=2003
DGENRE=Blues
TTITLE0=Who do you Love?
TTITLE1=Lenny
TTITLE2=Help Me
TTITLE3=Born under a Bad Sign
TTITLE4=Catfish Blues
TTITLE5=Same Things
TTITLE6=Kammakastig Land
TTITLE7=Blues at Sunrise
TTITLE8=So Excited
TTITLE9=Voodoo Chile
TTITLE10=Crawling Kingsnake
TTITLE11=Rolling and Tumbling
TTITLE12=Same Thing
TTITLE13=Kammakastig Land (stoute mix)
TTITLE14=One in Many
TTITLE15=Repent
TTITLE16=My Love
EXTD=
EXTT0=
EXTT1=
EXTT2=
EXTT3=
EXTT4=
EXTT5=
EXTT6=
EXTT7=
EXTT8=
EXTT9=
EXTT10=
EXTT11=
EXTT12=
EXTT13=
EXTT14=
EXTT15=
EXTT16=
PLAYORDER=
